<svg width="84" height="24" viewBox="0 0 84 24" fill="none" xmlns="http://www.w3.org/2000/svg">
<path d="M1.65519 16V7.6H5.41119C6.35519 7.6 7.09119 7.788 7.61919 8.164C8.14719 8.532 8.41119 9.064 8.41119 9.76C8.41119 10.448 8.15919 10.98 7.65519 11.356C7.15119 11.724 6.48719 11.908 5.66319 11.908L5.87919 11.476C6.81519 11.476 7.53919 11.664 8.05119 12.04C8.56319 12.416 8.81919 12.96 8.81919 13.672C8.81919 14.4 8.55119 14.972 8.01519 15.388C7.47919 15.796 6.68719 16 5.63919 16H1.65519ZM3.19119 14.8H5.59119C6.13519 14.8 6.54719 14.7 6.82719 14.5C7.10719 14.292 7.24719 13.976 7.24719 13.552C7.24719 13.128 7.10719 12.82 6.82719 12.628C6.54719 12.428 6.13519 12.328 5.59119 12.328H3.19119V14.8ZM3.19119 11.188H5.27919C5.78319 11.188 6.16719 11.088 6.43119 10.888C6.69519 10.68 6.82719 10.384 6.82719 10C6.82719 9.6 6.69519 9.3 6.43119 9.1C6.16719 8.9 5.78319 8.8 5.27919 8.8H3.19119V11.188ZM14.6963 16.12C14.0403 16.12 13.4363 16.012 12.8843 15.796C12.3323 15.58 11.8523 15.28 11.4443 14.896C11.0363 14.504 10.7203 14.048 10.4963 13.528C10.2723 13 10.1603 12.424 10.1603 11.8C10.1603 11.176 10.2723 10.604 10.4963 10.084C10.7203 9.556 11.0363 9.1 11.4443 8.716C11.8523 8.324 12.3323 8.02 12.8843 7.804C13.4363 7.588 14.0363 7.48 14.6843 7.48C15.3403 7.48 15.9403 7.588 16.4843 7.804C17.0363 8.02 17.5163 8.324 17.9243 8.716C18.3323 9.1 18.6483 9.556 18.8723 10.084C19.0963 10.604 19.2083 11.176 19.2083 11.8C19.2083 12.424 19.0963 13 18.8723 13.528C18.6483 14.056 18.3323 14.512 17.9243 14.896C17.5163 15.28 17.0363 15.58 16.4843 15.796C15.9403 16.012 15.3443 16.12 14.6963 16.12ZM14.6843 14.752C15.1083 14.752 15.5003 14.68 15.8603 14.536C16.2203 14.392 16.5323 14.188 16.7963 13.924C17.0603 13.652 17.2643 13.34 17.4083 12.988C17.5603 12.628 17.6363 12.232 17.6363 11.8C17.6363 11.368 17.5603 10.976 17.4083 10.624C17.2643 10.264 17.0603 9.952 16.7963 9.688C16.5323 9.416 16.2203 9.208 15.8603 9.064C15.5003 8.92 15.1083 8.848 14.6843 8.848C14.2603 8.848 13.8683 8.92 13.5083 9.064C13.1563 9.208 12.8443 9.416 12.5723 9.688C12.3083 9.952 12.1003 10.264 11.9483 10.624C11.8043 10.976 11.7323 11.368 11.7323 11.8C11.7323 12.224 11.8043 12.616 11.9483 12.976C12.1003 13.336 12.3083 13.652 12.5723 13.924C12.8363 14.188 13.1483 14.392 13.5083 14.536C13.8683 14.68 14.2603 14.752 14.6843 14.752ZM21.145 16V7.6H22.681V13.564L27.193 7.6H28.645V16H27.109V10.048L22.597 16H21.145ZM24.877 7.036C24.157 7.036 23.613 6.884 23.245 6.58C22.885 6.276 22.701 5.848 22.693 5.296H23.785C23.793 5.592 23.889 5.82 24.073 5.98C24.265 6.14 24.533 6.22 24.877 6.22C25.221 6.22 25.489 6.14 25.681 5.98C25.881 5.82 25.985 5.592 25.993 5.296H27.073C27.065 5.848 26.877 6.276 26.509 6.58C26.141 6.884 25.597 7.036 24.877 7.036ZM32.9642 16V8.536L33.3362 8.92H30.1922V7.6H37.2962V8.92H34.1522L34.5122 8.536V16H32.9642ZM38.8536 16V7.6H40.3896V13.564L44.9016 7.6H46.3536V16H44.8176V10.048L40.3056 16H38.8536Z" fill="#363636"/>
<path d="M75 6L81 12M81 12L75 18M81 12H63" stroke="#363636" stroke-width="2" stroke-linecap="round" stroke-linejoin="round"/>
</svg>
