<svg width="217" height="24" viewBox="0 0 217 24" fill="none" xmlns="http://www.w3.org/2000/svg">
<path d="M9 6L3 12M3 12L9 18M3 12H21" stroke="#BFC4C9" stroke-width="2" stroke-linecap="round" stroke-linejoin="round"/>
<path d="M37.2466 16V7.6H41.0026C41.9466 7.6 42.6826 7.788 43.2106 8.164C43.7386 8.532 44.0026 9.064 44.0026 9.76C44.0026 10.448 43.7506 10.98 43.2466 11.356C42.7426 11.724 42.0786 11.908 41.2546 11.908L41.4706 11.476C42.4066 11.476 43.1306 11.664 43.6426 12.04C44.1546 12.416 44.4106 12.96 44.4106 13.672C44.4106 14.4 44.1426 14.972 43.6066 15.388C43.0706 15.796 42.2786 16 41.2306 16H37.2466ZM38.7826 14.8H41.1826C41.7266 14.8 42.1386 14.7 42.4186 14.5C42.6986 14.292 42.8386 13.976 42.8386 13.552C42.8386 13.128 42.6986 12.82 42.4186 12.628C42.1386 12.428 41.7266 12.328 41.1826 12.328H38.7826V14.8ZM38.7826 11.188H40.8706C41.3746 11.188 41.7586 11.088 42.0226 10.888C42.2866 10.68 42.4186 10.384 42.4186 10C42.4186 9.6 42.2866 9.3 42.0226 9.1C41.7586 8.9 41.3746 8.8 40.8706 8.8H38.7826V11.188ZM45.4425 7.6H47.2425L49.2225 10.408L51.2025 7.6H53.0265L50.2065 11.632L53.2545 16H51.4065L49.2225 12.94L47.0505 16H45.2505L48.2865 11.692L45.4425 7.6ZM58.3744 16.12C57.7184 16.12 57.1144 16.012 56.5624 15.796C56.0104 15.58 55.5304 15.28 55.1224 14.896C54.7144 14.504 54.3984 14.048 54.1744 13.528C53.9504 13 53.8384 12.424 53.8384 11.8C53.8384 11.176 53.9504 10.604 54.1744 10.084C54.3984 9.556 54.7144 9.1 55.1224 8.716C55.5304 8.324 56.0104 8.02 56.5624 7.804C57.1144 7.588 57.7144 7.48 58.3624 7.48C59.0184 7.48 59.6184 7.588 60.1624 7.804C60.7144 8.02 61.1944 8.324 61.6024 8.716C62.0104 9.1 62.3264 9.556 62.5504 10.084C62.7744 10.604 62.8864 11.176 62.8864 11.8C62.8864 12.424 62.7744 13 62.5504 13.528C62.3264 14.056 62.0104 14.512 61.6024 14.896C61.1944 15.28 60.7144 15.58 60.1624 15.796C59.6184 16.012 59.0224 16.12 58.3744 16.12ZM58.3624 14.752C58.7864 14.752 59.1784 14.68 59.5384 14.536C59.8984 14.392 60.2104 14.188 60.4744 13.924C60.7384 13.652 60.9424 13.34 61.0864 12.988C61.2384 12.628 61.3144 12.232 61.3144 11.8C61.3144 11.368 61.2384 10.976 61.0864 10.624C60.9424 10.264 60.7384 9.952 60.4744 9.688C60.2104 9.416 59.8984 9.208 59.5384 9.064C59.1784 8.92 58.7864 8.848 58.3624 8.848C57.9384 8.848 57.5464 8.92 57.1864 9.064C56.8344 9.208 56.5224 9.416 56.2504 9.688C55.9864 9.952 55.7784 10.264 55.6264 10.624C55.4824 10.976 55.4104 11.368 55.4104 11.8C55.4104 12.224 55.4824 12.616 55.6264 12.976C55.7784 13.336 55.9864 13.652 56.2504 13.924C56.5144 14.188 56.8264 14.392 57.1864 14.536C57.5464 14.68 57.9384 14.752 58.3624 14.752ZM70.1568 15.28V8.92H66.8688L66.8088 10.408C66.7848 10.968 66.7488 11.5 66.7008 12.004C66.6608 12.5 66.5928 12.952 66.4968 13.36C66.4088 13.768 66.2848 14.108 66.1248 14.38C65.9648 14.652 65.7688 14.832 65.5368 14.92L63.8568 14.68C64.1608 14.696 64.4088 14.592 64.6008 14.368C64.8008 14.144 64.9568 13.832 65.0688 13.432C65.1808 13.032 65.2648 12.564 65.3208 12.028C65.3768 11.484 65.4168 10.896 65.4408 10.264L65.5368 7.6H71.6928V15.28H70.1568ZM63.5688 17.788L63.5808 14.68H72.9048V17.788H71.4648V16H65.0208V17.788H63.5688ZM78.1021 16V7.6H81.8581C82.8021 7.6 83.5381 7.788 84.0661 8.164C84.5941 8.532 84.8581 9.064 84.8581 9.76C84.8581 10.448 84.6061 10.98 84.1021 11.356C83.5981 11.724 82.9341 11.908 82.1101 11.908L82.3261 11.476C83.2621 11.476 83.9861 11.664 84.4981 12.04C85.0101 12.416 85.2661 12.96 85.2661 13.672C85.2661 14.4 84.9981 14.972 84.4621 15.388C83.9261 15.796 83.1341 16 82.0861 16H78.1021ZM79.6381 14.8H82.0381C82.5821 14.8 82.9941 14.7 83.2741 14.5C83.5541 14.292 83.6941 13.976 83.6941 13.552C83.6941 13.128 83.5541 12.82 83.2741 12.628C82.9941 12.428 82.5821 12.328 82.0381 12.328H79.6381V14.8ZM79.6381 11.188H81.7261C82.2301 11.188 82.6141 11.088 82.8781 10.888C83.1421 10.68 83.2741 10.384 83.2741 10C83.2741 9.6 83.1421 9.3 82.8781 9.1C82.6141 8.9 82.2301 8.8 81.7261 8.8H79.6381V11.188ZM90.6036 16.12C90.4676 16.12 90.3316 16.108 90.1956 16.084C90.0596 16.06 89.9116 16.032 89.7516 16L89.8596 14.644C89.9716 14.676 90.0916 14.692 90.2196 14.692C90.5556 14.692 90.8236 14.556 91.0236 14.284C91.2236 14.004 91.3676 13.596 91.4556 13.06C91.5436 12.524 91.6036 11.864 91.6356 11.08L91.7556 7.6H97.9356V16H96.3996V8.536L96.7596 8.92H92.7636L93.0996 8.524L93.0156 11.02C92.9916 11.852 92.9356 12.584 92.8476 13.216C92.7596 13.848 92.6236 14.38 92.4396 14.812C92.2636 15.236 92.0276 15.56 91.7316 15.784C91.4356 16.008 91.0596 16.12 90.6036 16.12ZM100.511 16V7.6H102.047V13.564L106.559 7.6H108.011V16H106.475V10.048L101.963 16H100.511ZM115.575 12.736C115.135 12.92 114.707 13.056 114.291 13.144C113.875 13.232 113.471 13.276 113.079 13.276C112.007 13.276 111.179 13.02 110.595 12.508C110.019 11.988 109.731 11.244 109.731 10.276V7.6H111.279V10.108C111.279 10.7 111.451 11.152 111.795 11.464C112.139 11.776 112.631 11.932 113.271 11.932C113.655 11.932 114.039 11.888 114.423 11.8C114.815 11.712 115.191 11.576 115.551 11.392L115.575 12.736ZM115.335 16V7.6H116.883V16H115.335ZM125.342 7.6H126.902V16H125.342V7.6ZM120.998 16H119.438V7.6H120.998V16ZM125.462 12.4H120.866V11.068H125.462V12.4ZM133.334 10.444C134.334 10.444 135.106 10.668 135.65 11.116C136.194 11.564 136.466 12.236 136.466 13.132C136.466 14.076 136.166 14.792 135.566 15.28C134.974 15.76 134.146 16 133.082 16H129.47V7.6H131.006V10.444H133.334ZM133.01 14.8C133.61 14.8 134.074 14.66 134.402 14.38C134.738 14.1 134.906 13.692 134.906 13.156C134.906 12.628 134.742 12.244 134.414 12.004C134.086 11.756 133.618 11.632 133.01 11.632H131.006V14.8H133.01ZM137.678 16V7.6H139.214V16H137.678ZM141.787 16V7.6H143.323V13.564L147.835 7.6H149.287V16H147.751V10.048L143.239 16H141.787ZM145.519 7.036C144.799 7.036 144.255 6.884 143.887 6.58C143.527 6.276 143.343 5.848 143.335 5.296H144.427C144.435 5.592 144.531 5.82 144.715 5.98C144.907 6.14 145.175 6.22 145.519 6.22C145.863 6.22 146.131 6.14 146.323 5.98C146.523 5.82 146.627 5.592 146.635 5.296H147.715C147.707 5.848 147.519 6.276 147.151 6.58C146.783 6.884 146.239 7.036 145.519 7.036ZM160.915 16L158.071 11.908L159.331 11.128L162.679 16H160.915ZM155.359 16V7.6H156.895V16H155.359ZM156.427 12.46V11.116H159.259V12.46H156.427ZM159.475 11.98L158.047 11.788L160.915 7.6H162.571L159.475 11.98ZM162.729 16L166.509 7.6H168.045L171.837 16H170.205L166.953 8.428H167.577L164.337 16H162.729ZM164.469 14.056L164.889 12.832H169.425L169.845 14.056H164.469ZM173.337 16V7.6H179.877V8.884H174.873V10.948H177.357C178.365 10.948 179.129 11.16 179.649 11.584C180.177 12 180.441 12.608 180.441 13.408C180.441 14.232 180.149 14.872 179.565 15.328C178.989 15.776 178.173 16 177.117 16H173.337ZM174.873 14.8H177.033C177.633 14.8 178.089 14.684 178.401 14.452C178.713 14.22 178.869 13.884 178.869 13.444C178.869 12.58 178.257 12.148 177.033 12.148H174.873V14.8ZM182.361 16V7.6H183.897V13.564L188.409 7.6H189.861V16H188.325V10.048L183.813 16H182.361ZM198.321 7.6H199.881V16H198.321V7.6ZM193.977 16H192.417V7.6H193.977V16ZM198.441 12.4H193.845V11.068H198.441V12.4ZM203.877 11.092H208.053V12.376H203.877V11.092ZM203.997 14.692H208.737V16H202.437V7.6H208.569V8.908H203.997V14.692ZM212.44 16V8.536L212.812 8.92H209.668V7.6H216.772V8.92H213.628L213.988 8.536V16H212.44Z" fill="#727272"/>
</svg>
