<svg width="120" height="170" viewBox="0 0 120 170" fill="none" xmlns="http://www.w3.org/2000/svg">
<rect x="0.5" y="0.5" width="119" height="169" rx="2.5" fill="#F9F9FA" stroke="#A7A7A7"/>
<path d="M64.1667 78.6316H55.4167L50.1667 74L49 86.7368C49 90.2105 51.3333 96 59.5 96C67.6667 96 70 90.2105 70 86.7368C70 85.3474 69.2222 77.6667 68.8333 74L64.1667 78.6316Z" stroke="#363636" stroke-width="2" stroke-linejoin="round"/>
<path d="M54 87H46" stroke="#363636" stroke-width="2" stroke-linecap="round" stroke-linejoin="round"/>
<path d="M74 87H66" stroke="#363636" stroke-width="2" stroke-linecap="round" stroke-linejoin="round"/>
<path d="M55 92H47" stroke="#363636" stroke-width="2" stroke-linecap="round" stroke-linejoin="round"/>
<path d="M73 92H65" stroke="#363636" stroke-width="2" stroke-linecap="round" stroke-linejoin="round"/>
<path d="M59.5 87V89C60.1667 89.6667 61.8 90.6 63 89" stroke="#363636" stroke-width="2" stroke-linecap="round" stroke-linejoin="round"/>
<path d="M59.5 89C58.8333 89.6667 57.2 90.6 56 89" stroke="#363636" stroke-width="2" stroke-linecap="round" stroke-linejoin="round"/>
</svg>
