<svg width="161" height="24" viewBox="0 0 161 24" fill="none" xmlns="http://www.w3.org/2000/svg">
<path d="M1.42209 16V7.6H4.87809C5.62209 7.6 6.25809 7.72 6.78609 7.96C7.32209 8.2 7.73409 8.544 8.02209 8.992C8.31009 9.44 8.45409 9.972 8.45409 10.588C8.45409 11.204 8.31009 11.736 8.02209 12.184C7.73409 12.632 7.32209 12.976 6.78609 13.216C6.25809 13.456 5.62209 13.576 4.87809 13.576H2.28609L2.98209 12.844V16H1.42209ZM2.98209 13.012L2.28609 12.256H4.80609C5.49409 12.256 6.01009 12.112 6.35409 11.824C6.70609 11.528 6.88209 11.116 6.88209 10.588C6.88209 10.052 6.70609 9.64 6.35409 9.352C6.01009 9.064 5.49409 8.92 4.80609 8.92H2.28609L2.98209 8.152V13.012ZM11.5699 11.092H15.7459V12.376H11.5699V11.092ZM11.6899 14.692H16.4299V16H10.1299V7.6H16.2619V8.908H11.6899V14.692ZM18.381 16V7.6H24.081L24.069 8.92H19.545L19.905 8.548L19.917 16H18.381ZM25.6005 16V7.6H27.1365V13.564L31.6485 7.6H33.1005V16H31.5645V10.048L27.0525 16H25.6005ZM39.5197 16.12C38.8797 16.12 38.2837 16.016 37.7317 15.808C37.1877 15.592 36.7117 15.292 36.3037 14.908C35.9037 14.516 35.5917 14.056 35.3677 13.528C35.1437 13 35.0317 12.424 35.0317 11.8C35.0317 11.176 35.1437 10.6 35.3677 10.072C35.5917 9.544 35.9077 9.088 36.3157 8.704C36.7237 8.312 37.1997 8.012 37.7437 7.804C38.2877 7.588 38.8837 7.48 39.5317 7.48C40.2197 7.48 40.8477 7.6 41.4157 7.84C41.9837 8.072 42.4637 8.42 42.8557 8.884L41.8477 9.832C41.5437 9.504 41.2037 9.26 40.8277 9.1C40.4517 8.932 40.0437 8.848 39.6037 8.848C39.1637 8.848 38.7597 8.92 38.3917 9.064C38.0317 9.208 37.7157 9.412 37.4437 9.676C37.1797 9.94 36.9717 10.252 36.8197 10.612C36.6757 10.972 36.6037 11.368 36.6037 11.8C36.6037 12.232 36.6757 12.628 36.8197 12.988C36.9717 13.348 37.1797 13.66 37.4437 13.924C37.7157 14.188 38.0317 14.392 38.3917 14.536C38.7597 14.68 39.1637 14.752 39.6037 14.752C40.0437 14.752 40.4517 14.672 40.8277 14.512C41.2037 14.344 41.5437 14.092 41.8477 13.756L42.8557 14.716C42.4637 15.172 41.9837 15.52 41.4157 15.76C40.8477 16 40.2157 16.12 39.5197 16.12ZM46.1744 16V8.536L46.5464 8.92H43.4024V7.6H50.5064V8.92H47.3624L47.7224 8.536V16H46.1744ZM52.0518 16V7.6H55.5078C56.2518 7.6 56.8878 7.72 57.4158 7.96C57.9518 8.2 58.3638 8.544 58.6518 8.992C58.9398 9.44 59.0838 9.972 59.0838 10.588C59.0838 11.204 58.9398 11.736 58.6518 12.184C58.3638 12.632 57.9518 12.976 57.4158 13.216C56.8878 13.456 56.2518 13.576 55.5078 13.576H52.9158L53.6118 12.844V16H52.0518ZM53.6118 13.012L52.9158 12.256H55.4358C56.1238 12.256 56.6398 12.112 56.9838 11.824C57.3358 11.528 57.5118 11.116 57.5118 10.588C57.5118 10.052 57.3358 9.64 56.9838 9.352C56.6398 9.064 56.1238 8.92 55.4358 8.92H52.9158L53.6118 8.152V13.012ZM59.2697 16L63.0497 7.6H64.5857L68.3777 16H66.7457L63.4937 8.428H64.1177L60.8777 16H59.2697ZM61.0097 14.056L61.4297 12.832H65.9657L66.3857 14.056H61.0097ZM69.8778 16V7.6H71.4138V14.68H75.6498V7.6H77.1978V16H69.8778ZM77.0058 17.848V15.616L77.3538 16H75.6498V14.68H78.4458V17.848H77.0058ZM80.0857 16V7.6H81.6217V13.564L86.1337 7.6H87.5857V16H86.0497V10.048L81.5377 16H80.0857ZM95.0248 16V13.312L95.4088 13.66H92.9488C92.2448 13.66 91.6368 13.544 91.1248 13.312C90.6208 13.072 90.2328 12.732 89.9608 12.292C89.6888 11.844 89.5528 11.308 89.5528 10.684C89.5528 10.036 89.6968 9.484 89.9848 9.028C90.2728 8.564 90.6808 8.212 91.2088 7.972C91.7368 7.724 92.3568 7.6 93.0688 7.6H96.5608V16H95.0248ZM89.5768 16L91.6528 13H93.2248L91.2208 16H89.5768ZM95.0248 12.808V8.488L95.4088 8.92H93.1168C92.4768 8.92 91.9848 9.068 91.6408 9.364C91.3048 9.652 91.1368 10.084 91.1368 10.66C91.1368 11.212 91.2968 11.64 91.6168 11.944C91.9448 12.24 92.4248 12.388 93.0568 12.388H95.4088L95.0248 12.808Z" fill="#363636"/>
<path d="M125 6L131 12M131 12L125 18M131 12H113" stroke="#363636" stroke-width="2" stroke-linecap="round" stroke-linejoin="round"/>
</svg>
